<svg width="10" height="12" viewBox="0 0 10 12" fill="none" xmlns="http://www.w3.org/2000/svg">
<path fill-rule="evenodd" clip-rule="evenodd" d="M0.00907209 1C0.00907209 1.34867 0.00693696 1.69451 0.00473833 2.03674L0.00446135 2.0798C-0.0251938 6.6882 -0.050591 10.6349 5.00009 12C10.0507 10.6355 10.0252 6.68835 9.99553 2.08044L9.99525 2.03675C9.99305 1.69451 9.99091 1.34866 9.99091 1C9.99091 1 9.59324 1.13281 8.9911 1.20483C7.94396 1.33008 6.27846 1.27146 5.01082 0.010704L5.00009 0L4.98937 0.0107017C3.72187 1.27152 2.05614 1.33008 1.00888 1.20482C0.406753 1.13279 0.00907209 1 0.00907209 1ZM1.42365 7.56527C0.989467 6.08637 0.992586 4.30691 1.00436 2.21052C1.21443 2.23238 1.44388 2.24728 1.68752 2.24967L4.03505 8.18393L4.51246 9.39076L4.96816 8.17556L6.14766 5.03022L7.09999 6.3L7.4459 6.7612L7.85355 6.35355L8.94439 5.26271C8.88937 6.09868 8.78186 6.86566 8.57647 7.56537C8.33026 8.40415 7.95246 9.09635 7.37746 9.65682C6.84252 10.1782 6.08973 10.6316 5.00014 10.9601C3.91054 10.6315 3.15772 10.1781 2.62275 9.65665C2.04772 9.09616 1.66989 8.40399 1.42365 7.56527ZM8.99537 3.79752C9.00123 3.29019 8.99873 2.7613 8.99563 2.21053C8.76605 2.23443 8.51332 2.25 8.24422 2.25C7.30098 2.25 6.09366 2.05619 5.00013 1.29875C4.25797 1.81284 3.46336 2.06728 2.73446 2.17771L4.48753 6.60924L5.53183 3.82444L5.85233 2.96978L6.39999 3.7L7.55409 5.2388L8.99537 3.79752Z" fill="#ff8a00"/>
</svg>
