<svg width="16" height="12" viewBox="0 0 16 12" fill="none" xmlns="http://www.w3.org/2000/svg">
<path fill-rule="evenodd" clip-rule="evenodd" d="M3.40478 0H12.616L16 3.12486L8.52471 12L0 3.14407L3.40478 0ZM3.53139 1.16085L1.85319 2.71055H4.65019L3.53139 1.16085ZM5.21169 3.61406L7.28179 9.34882L1.76152 3.61406H5.21169ZM9.44914 9.43078L14.3484 3.61406H10.8489L9.44914 9.43078ZM9.84663 3.61406H6.24306L8.4052 9.6038L9.84663 3.61406ZM11.3706 2.71055H14.1676L12.4894 1.16086L11.3706 2.71055ZM11.4993 0.903516H9.0549L10.4129 2.4083L11.4993 0.903516ZM9.41199 2.71055L8.0104 1.15743L6.60881 2.71055H9.41199ZM5.60792 2.4083L6.9659 0.903516H4.52154L5.60792 2.4083Z" fill="#ff8a00"/>
</svg>
