<svg width="20" height="13" viewBox="0 0 20 13" fill="none" xmlns="http://www.w3.org/2000/svg">
<path fill-rule="evenodd" clip-rule="evenodd" d="M6.39406 6.36737C6.77307 6.3844 7.20893 6.23027 7.67047 5.6376C6.94656 4.91706 6.04529 4.28026 4.92575 3.79645L5.32244 2.8785C6.48557 3.38114 7.43531 4.03027 8.20952 4.76283C8.64479 3.89664 8.60917 3.38436 8.44905 3.08114C8.24369 2.69225 7.71003 2.38847 6.81023 2.20432C5.93987 2.02618 4.87244 1.98911 3.81524 2.00024C3.29 2.00576 2.77557 2.02298 2.29582 2.03903L2.29581 2.03903L2.29524 2.03905L2.29143 2.03917C2.17505 2.04307 2.06042 2.0469 1.94813 2.05048L2.03209 2.17126C2.75198 3.20713 3.65799 4.51081 4.64146 5.41455C5.29287 6.01315 5.88645 6.34457 6.39406 6.36737ZM9.33333 2.61419C9.74736 3.39825 9.58619 4.37705 8.93315 5.52855C10.0915 6.89954 10.7489 8.46189 11.1099 9.8752C11.4414 9.04305 11.9248 8.2225 12.5939 7.46202C12.0912 6.80252 11.8914 6.14804 12.0889 5.52327C12.3096 4.82521 12.9679 4.37838 13.6455 4.08612C15.0285 3.48959 17.0523 3.29762 18.3459 3.29762H19.0027L18.8278 3.93077C18.5648 4.88289 17.9041 6.57407 16.9453 7.68954C16.467 8.24605 15.8557 8.72787 15.1207 8.82289C14.4928 8.90405 13.8741 8.69243 13.2836 8.19362C11.9941 9.69625 11.5192 11.4419 11.5136 12.9723C11.5136 12.9816 11.5136 12.9908 11.5136 13H11.5135H10.5136H10.5135C10.5135 12.9906 10.5135 12.9812 10.5136 12.9718C10.509 11.424 10.13 8.64847 8.34392 6.3925C7.76226 7.07398 7.09051 7.39967 6.34918 7.36636C5.4778 7.32722 4.66176 6.7913 3.96483 6.15087C2.8895 5.16272 1.87922 3.70741 1.15547 2.66484C0.940428 2.35507 0.75068 2.08174 0.592036 1.86792L0 1.06999L0.993579 1.06999C1.35118 1.06999 1.78003 1.05573 2.2618 1.03961L2.26706 1.03943C2.74403 1.02347 3.26799 1.00594 3.80472 1.00029C4.87581 0.989017 6.03138 1.02418 7.01074 1.22462C7.96067 1.41904 8.90347 1.80016 9.33333 2.61419ZM14.7386 5.67323C14.2022 6.00336 13.7261 6.36205 13.3053 6.74207C12.9947 6.29516 12.986 6.00296 13.0424 5.82468C13.1263 5.55933 13.4302 5.26805 14.0415 5.00435C15.0316 4.5773 16.4787 4.37273 17.6562 4.31515C17.3459 5.18477 16.8312 6.28817 16.187 7.0377C15.7754 7.51648 15.3698 7.78237 14.9925 7.83114C14.7235 7.8659 14.3881 7.79945 13.9847 7.47639C14.3593 7.13892 14.7837 6.81966 15.2627 6.52489L14.7386 5.67323Z" fill="#ff8a00"/>
</svg>
